<?xml version="1.0" encoding="utf-8"?>
<!-- Generator: Adobe Illustrator 25.2.3, SVG Export Plug-In . SVG Version: 6.00 Build 0)  -->
<svg version="1.1" id="Слой_1" xmlns="http://www.w3.org/2000/svg" xmlns:xlink="http://www.w3.org/1999/xlink" x="0px" y="0px"
	 viewBox="0 0 128 128" style="enable-background:new 0 0 128 128;" xml:space="preserve">
<style type="text/css">
	.st0{fill:#B71F2E;}
	.st1{fill-rule:evenodd;clip-rule:evenodd;}
	.st2{fill-rule:evenodd;clip-rule:evenodd;fill:#B71F2E;}
</style>
<g>
	<path d="M58.5,12.2c-0.8-0.1-1.5,0.6-1.5,1.4c0,0.8,0.6,1.4,1.4,1.4c0.8,0,1.5-0.7,1.4-1.6C59.7,12.8,59.1,12.3,58.5,12.2z"/>
	<path d="M69,12.2h-5.3c-0.7,0-1.4,0.5-1.5,1.3c-0.1,0.8,0.6,1.5,1.4,1.5l5.3,0c0.7,0,1.4-0.5,1.5-1.3C70.5,12.9,69.8,12.2,69,12.2z
		"/>
	<path d="M64.1,101.1c-2.4-0.3-4.4,1.7-4.1,4.1c0.2,1.6,1.5,3,3.2,3.2c2.4,0.3,4.4-1.7,4.1-4.1C67.1,102.7,65.8,101.3,64.1,101.1z
		 M64,106.6c-1.3,0.3-2.5-0.9-2.2-2.2c0.1-0.7,0.7-1.3,1.5-1.5c1.3-0.3,2.5,0.9,2.2,2.2C65.4,105.9,64.8,106.5,64,106.6z"/>
	<path d="M115.5,28.4H95.3V17.2C95.3,11.6,90.7,7,85.1,7L85,7H42.2C36.6,7,32,11.6,32,17.2v7.1c0,0.7,0.6,1.3,1.3,1.3h0
		c0.7,0,1.3-0.6,1.3-1.3v-4.1h58.2v8.2H72.6c-0.7,0-1.3,0.6-1.3,1.3v45.4c0,0.5,0.2,0.9,0.6,1.1c0.4,0.2,0.9,0.2,1.3,0l8.6-5.2h10.9
		v25.4H34.6V82.8h10.9l8.6,5.2c0.4,0.2,0.9,0.2,1.3,0c0.4-0.2,0.6-0.7,0.6-1.1V49.4c0-0.7-0.6-1.3-1.3-1.3H34.6v-6.6
		c0-0.7-0.6-1.3-1.3-1.3h0c-0.7,0-1.3,0.6-1.3,1.3v6.6H11.8c-0.7,0-1.3,0.6-1.3,1.3v32.2c0,0.7,0.6,1.3,1.3,1.3H32v25.5
		c0,6.6,5.4,12,12,12h39.3c6.6,0,12-5.4,12-12V71h20.2c0.7,0,1.3-0.6,1.3-1.3v-40C116.8,29,116.2,28.4,115.5,28.4z M34.6,17.7v-0.5
		c0-4.2,3.4-7.7,7.7-7.7h43l0,0c4.2,0,7.6,3.5,7.6,7.7v0.5H34.6z M92.8,98.9v2.3c0,5.2-4.2,9.4-9.4,9.4H44c-5.2,0-9.4-4.2-9.4-9.4
		v-2.3H92.8z M13.1,80.3V50.7h40.3v34l-7-4.2c-0.2-0.1-0.4-0.2-0.7-0.2H13.1z M92.6,110.2c-0.9,4.4-4.8,7.6-9.3,7.6H44
		c-4.5,0-8.4-3.2-9.3-7.6l-0.3-1.6l1.2,1.2c2.3,2.2,5.2,3.4,8.4,3.4h39.3c3.2,0,6.1-1.2,8.4-3.4l1.2-1.2L92.6,110.2z M114.2,68.4
		H81.5c-0.2,0-0.5,0.1-0.7,0.2l-7,4.2V31h40.3V68.4z"/>
	<path d="M45.8,56.9l-25,0c-0.7,0-1.4,0.5-1.5,1.3c-0.1,0.8,0.6,1.5,1.4,1.5h25c0.7,0,1.4-0.5,1.5-1.3
		C47.3,57.6,46.6,56.9,45.8,56.9z"/>
	<path d="M45.8,64.1h-25c-0.7,0-1.4,0.5-1.5,1.3c-0.1,0.8,0.6,1.5,1.4,1.5h25c0.7,0,1.4-0.5,1.5-1.3C47.3,64.8,46.6,64.1,45.8,64.1z
		"/>
	<path d="M33.3,71.2l-12.4,0c-0.7,0-1.4,0.5-1.5,1.3c-0.1,0.8,0.6,1.5,1.4,1.5h12.4c0.7,0,1.4-0.5,1.5-1.3
		C34.8,71.9,34.1,71.2,33.3,71.2z"/>
	<g id="Слой_x0020_1_1_">
		<polygon class="st1" points="86.5,44.6 91.4,44.6 91.4,52.1 98,44.6 103.8,44.6 96.2,53.4 96.2,53.8 103.8,63.6 98,63.6 
			91.4,55.2 91.3,63.6 86.5,63.6 		"/>
		<polygon class="st2" points="86.5,36.6 91.4,36.6 91.4,38.8 93.1,38.8 93.1,35.3 97.1,35.3 97.1,38.8 98.9,38.8 98.9,36.6 
			103.8,36.6 103.8,42.3 86.5,42.3 		"/>
	</g>
	<circle cx="33.2" cy="33.1" r="1.3"/>
</g>
</svg>
