<?xml version="1.0" encoding="utf-8"?>
<!-- Generator: Adobe Illustrator 25.2.3, SVG Export Plug-In . SVG Version: 6.00 Build 0)  -->
<svg version="1.1" id="Слой_1" xmlns="http://www.w3.org/2000/svg" xmlns:xlink="http://www.w3.org/1999/xlink" x="0px" y="0px"
	 viewBox="0 0 128 128" style="enable-background:new 0 0 128 128;" xml:space="preserve">
<style type="text/css">
	.st0{fill:#B71F2E;}
	.st1{fill-rule:evenodd;clip-rule:evenodd;}
	.st2{fill-rule:evenodd;clip-rule:evenodd;fill:#B71F2E;}
</style>
<g>
	<path class="st0" d="M94.2,100c-0.3,0.5-0.5,1-0.4,1.6c0.1,0.6,0.4,1.1,0.8,1.4l4.5,3.4c0.4,0.3,0.8,0.4,1.3,0.4
		c0.6,0,1.2-0.3,1.6-0.7l8.6-9.5c0.4-0.4,0.6-1,0.5-1.5c0-0.6-0.3-1.1-0.7-1.5c-0.9-0.8-2.2-0.7-3,0.1l-7.3,8.1l-3-2.3h0
		c-0.4-0.3-0.8-0.4-1.3-0.4C95.3,99.1,94.7,99.4,94.2,100z"/>
	<path d="M52.4,117.5h40.8l0.2,0.2c3.1,3.4,6,5.3,8.3,5.3c5.7,0,12.8-10.7,14.9-14.4c3.5-6.5,4.8-12.1,4.6-19.9v0
		c0-0.8-0.6-1.5-1.4-1.5c-5.4-0.5-12.1-4.1-16.9-9.2c-0.3-0.3-0.7-0.5-1.1-0.5c-0.4,0-0.8,0.2-1.1,0.5c-2.1,2.2-4.7,4.3-7.3,5.8
		L92.9,84l-0.4-0.4c-4.4-4.9-9.9-8.6-16.3-10.9c-0.1,0-0.1,0-0.1-0.1l0,0c-0.5-0.2-1-0.3-1.5-0.5l-1-0.3l0.8-0.7
		c5.6-5.6,9-12.6,9-18.7v-3.9l0.4-0.2c2.4-1.1,4-3.5,4-6.1c0-2.8-1.7-5.3-4.3-6.2L83,35.8l0-0.4c-1.1-10.9-8.6-19.9-19.2-22.9
		l-0.4-0.1L63.3,12c-0.3-1.2-1.4-2.1-2.6-2.1h-8c-1.2,0-2.3,0.8-2.6,2L50,12.3l-0.4,0.1c-5.1,1.4-9.9,4.3-13.4,8.4
		c-3.5,4.1-5.8,9.3-6.4,14.7l0,0.4l-0.4,0.1c-2.6,1-4.3,3.5-4.3,6.2c0,2.7,1.6,5.1,4,6.1l0.4,0.2v3.9c0,6.1,3.4,13,9,18.7l0.7,0.7
		l-1,0.3c-0.5,0.2-1,0.3-1.5,0.5l0,0c-0.1,0-0.1,0-0.2,0.1l0,0c-7.1,2.6-13.1,6.9-17.8,12.7c-4.5,5.7-7.7,12.7-9.5,20.9
		c-0.6,2.8-1.1,6.3,0.7,8.6c1.8,2.2,5.1,2.5,7.8,2.5h14.5c0.9,0,1.6-0.7,1.6-1.6s-0.7-1.6-1.6-1.6H17.9c-2.9,0-4.6-0.4-5.4-1.3
		c-0.8-1-0.8-2.9-0.1-6c2.2-10,7.8-23.3,21.9-29.9l1-0.5l-0.1,1.1c-0.4,7.2,3.5,11.9,6.1,15c0.3,0.3,0.7,0.5,1.1,0.6
		c0.4,0,0.9-0.1,1.2-0.4l12.9-12.6l12.9,12.6c0.3,0.3,0.7,0.5,1.2,0.4c0.4,0,0.8-0.2,1.1-0.6c2.6-3.1,6.5-7.8,6.1-15l-0.1-1.1l1,0.5
		c4,1.9,7.6,4.5,10.6,7.6l0.7,0.7L89,85.8c-1.9,0.7-3.7,1.2-5.4,1.3c-0.8,0.1-1.4,0.7-1.4,1.5c-0.2,7.8,1.1,13.4,4.6,19.9
		c0,0,1.2,2.2,3.1,4.8l0.7,1H52.4c-0.9,0-1.6,0.7-1.6,1.6S51.6,117.5,52.4,117.5z M64.3,16c8.3,2.9,14.2,10.1,15.4,18.8l0.1,0.7
		H66.4l-0.2-0.4c-2.3-6.1-2.8-11-2.9-18.5l0-0.9L64.3,16z M50.6,34.7c2.3-6.8,2.5-12.7,2.5-21l0-0.6h7.1l0,0.6
		c0,8.3,0.2,14.2,2.5,21l0.3,0.8H50.4L50.6,34.7z M33.2,34.8c1.3-8.7,7.6-16.2,16-19l0.9-0.3l0,0.9C49.9,24,49.5,29,47.1,35.1
		L47,35.5H33.1L33.2,34.8z M28.3,42.2c0-2,1.6-3.5,3.5-3.5H81c2,0,3.5,1.6,3.5,3.5c0,2-1.6,3.5-3.5,3.5H31.9
		C29.9,45.7,28.3,44.1,28.3,42.2z M42.5,89.5l-0.4-0.6c-2.3-2.9-4.7-7.1-3.6-13.1l0.1-0.4l0.4-0.1c1-0.3,2.1-0.6,3.1-0.9l0.3-0.1
		l0.2,0.2c2.3,1.7,4.6,2.9,7,3.8c0.8,0.3,1.5,0.5,2.3,0.7l1.1,0.3L42.5,89.5z M56.4,76.6c-1.8,0-3.6-0.4-5.8-1.2
		c-9.5-3.6-17.9-14.3-17.9-23v-3.5h47.4v3.5c0,8.7-8.4,19.4-17.9,23C60.1,76.2,58.3,76.6,56.4,76.6z M70.8,88.9l-0.4,0.6L60,79.3
		L61,79c0.8-0.2,1.5-0.4,2.2-0.7c2.4-0.9,4.8-2.2,7-3.8l0.2-0.2l0.3,0.1c1.1,0.3,2.1,0.5,3.1,0.9l0.4,0.1l0.1,0.4
		C75.5,81.8,73.1,85.9,70.8,88.9z M89.7,107.1c-3-5.6-4.2-10.2-4.3-16.5l0-0.5l0.5-0.1c2.3-0.4,4.7-1.3,7.2-2.5l0,0
		c0.1,0,0.1-0.1,0.2-0.1l0,0c2.8-1.5,5.6-3.4,8-5.7l0.4-0.4l0.4,0.4c4.6,4.3,10.3,7.4,15.4,8.4l0.5,0.1l0,0.5
		c-0.1,6.3-1.3,10.9-4.3,16.5l0,0c-2.3,4.3-8.7,12.8-12.1,12.8C98.4,119.8,92,111.4,89.7,107.1z"/>
	<path d="M44,115.9c0-0.9-0.7-1.6-1.6-1.6c-0.9,0-1.6,0.7-1.6,1.6c0,0.9,0.7,1.6,1.6,1.6C43.3,117.5,44,116.8,44,115.9z"/>
</g>
</svg>
