<?xml version="1.0" encoding="utf-8"?>
<!-- Generator: Adobe Illustrator 25.2.3, SVG Export Plug-In . SVG Version: 6.00 Build 0)  -->
<svg version="1.1" id="Слой_1" xmlns="http://www.w3.org/2000/svg" xmlns:xlink="http://www.w3.org/1999/xlink" x="0px" y="0px"
	 viewBox="0 0 128 128" style="enable-background:new 0 0 128 128;" xml:space="preserve">
<style type="text/css">
	.st0{fill:#B71F2E;}
	.st1{fill-rule:evenodd;clip-rule:evenodd;}
	.st2{fill-rule:evenodd;clip-rule:evenodd;fill:#B71F2E;}
</style>
<g>
	<path d="M57.1,13.2c-0.8-0.1-1.5,0.6-1.5,1.4c0,0.8,0.6,1.4,1.4,1.4c0.8,0,1.5-0.7,1.4-1.6C58.2,13.8,57.7,13.3,57.1,13.2z"/>
	<path d="M67.6,13.2h-5.3c-0.7,0-1.3,0.4-1.4,1.1c-0.2,0.9,0.5,1.7,1.4,1.7h5.3c0.7,0,1.3-0.4,1.4-1.1C69.2,14,68.5,13.2,67.6,13.2z
		"/>
	<path d="M62.7,102.1c-2.4-0.3-4.4,1.7-4.1,4.1c0.2,1.6,1.5,3,3.2,3.2c2.4,0.3,4.4-1.7,4.1-4.1C65.7,103.7,64.4,102.3,62.7,102.1z
		 M62.6,107.6c-1.3,0.3-2.5-0.9-2.2-2.2c0.1-0.7,0.7-1.3,1.5-1.5c1.3-0.3,2.5,0.9,2.2,2.2C64,106.9,63.4,107.5,62.6,107.6z"/>
	<path d="M106.4,29.4H93.9V18.2C93.9,12.6,89.3,8,83.7,8l-0.1,0H40.8c-5.6,0-10.2,4.6-10.2,10.2v30.9v3.1v16.2
		c0,0.7,0.6,1.3,1.3,1.3h0c0.7,0,1.3-0.6,1.3-1.3v-5.2V49.1V21.3h58.2v8.2H53c-0.7,0-1.3,0.6-1.3,1.3v55.6c0,0.5,0.2,0.9,0.6,1.1
		c0.4,0.2,0.9,0.2,1.3,0l8.6-5.2h29.1v15.1H33.1V85.6c0-0.7-0.6-1.3-1.3-1.3h0c-0.7,0-1.3,0.6-1.3,1.3v23.7c0,6.6,5.4,12,12,12h39.3
		c6.6,0,12-5.4,12-12V82.3h12.5c0.7,0,1.3-0.6,1.3-1.3V30.7C107.7,30,107.1,29.4,106.4,29.4z M33.1,18.7v-0.5c0-4.2,3.4-7.7,7.7-7.7
		h43l0,0c4.2,0,7.6,3.5,7.6,7.7v0.5H33.1z M33.1,99.9h58.2v2.3c0,5.2-4.2,9.4-9.4,9.4H42.6c-5.2,0-9.4-4.2-9.4-9.4V99.9z
		 M91.2,111.2c-0.9,4.4-4.8,7.6-9.3,7.6H42.6c-4.5,0-8.4-3.2-9.3-7.6l-0.3-1.6l1.2,1.2c2.3,2.2,5.2,3.4,8.4,3.4h39.3
		c3.2,0,6.1-1.2,8.4-3.4l1.2-1.2L91.2,111.2z M105.1,79.7H61.9c-0.2,0-0.5,0.1-0.7,0.2l-7,4.2V32h50.9V79.7z"/>
	<path class="st0" d="M66.5,61.9l8.5,6.5c0.5,0.4,1.1,0.6,1.7,0.6c0.8,0,1.6-0.3,2.1-0.9l16.3-18c0.5-0.6,0.8-1.3,0.7-2
		c0-0.7-0.4-1.4-0.9-1.9c-1.1-1-2.9-1-4,0.2L76.4,62.4l-6.5-4.9c-0.5-0.4-1.1-0.6-1.7-0.6c-0.8,0-1.7,0.4-2.2,1.1
		C65,59.2,65.3,61,66.5,61.9z"/>
	<circle cx="31.8" cy="76.7" r="1.3"/>
</g>
</svg>
